<?xml version="1.0" encoding="utf-8"?>
<!-- Generator: Adobe Illustrator 27.0.1, SVG Export Plug-In . SVG Version: 6.00 Build 0)  -->
<svg version="1.1" id="Layer_1" xmlns="http://www.w3.org/2000/svg" xmlns:xlink="http://www.w3.org/1999/xlink" x="0px" y="0px"
	 viewBox="0 0 101.8 96.3" style="enable-background:new 0 0 101.8 96.3;" xml:space="preserve">
<style type="text/css">
	.st0{fill:#FFFFFF;}
</style>
<g transform="translate(0.000000,140.000000) scale(0.100000,-0.100000)">
	<path class="st0" d="M493,1353.2c-17-48-44-130-78-241c-3-8,4-13,16-13c13,0,24,10,30,30c10,27,15,30,54,30c40,0,44-2,50-30
		c5-23,12-30,30-30c24,0,23,2-76,299C516,1406.2,504,1386.2,493,1353.2z M540,1212.2c0-7-11-13-25-13c-28,0-31,13-14,57l11,28l14-30
		C533,1238.2,539,1218.2,540,1212.2z"/>
	<path class="st0" d="M0,1036.2c0-1,25-20,56-42c152-109,254-186,254-193c0-4-27-89-59-190c-32-100-54-179-47-174
		c125,98,308,222,318,216c14-8,57-39,206-149c51-37,95-66,97-63c4,4-91,306-109,348c-5,12,29,41,131,115c76,54,149,107,162,117
		c23,18,18,18-193,18c-202,0-217-1-214-17s21-19,153-23l149-5l-117-84c-64-46-117-89-117-95c0-7,20-71,44-144c25-73,43-132,41-132
		s-41,27-87,61c-46,33-100,72-120,86l-37,25l-73-54c-119-88-161-118-164-115c-2,1,17,65,41,142c24,76,43,140,42,141s-55,40-121,88
		l-118,86h150c127,0,151,2,156,16c3,9,6,18,6,20s-97,4-215,4S0,1038.2,0,1036.2z"/>
</g>
</svg>
