<svg id="Layer_1" data-name="Layer 1" xmlns="http://www.w3.org/2000/svg" xmlns:xlink="http://www.w3.org/1999/xlink" viewBox="0 0 100 100"><defs><style>.cls-1{fill:none;}.cls-2{clip-path:url(#clip-path);}.cls-3{fill:#f74f3e;}.cls-4{fill:#ff7900;}.cls-5{fill:#ffc700;}.cls-6{fill:#00ab6f;}.cls-7{fill:#00bdc6;}.cls-8{fill:#1b6ce2;}.cls-9{fill:#aa53d3;}.cls-10{fill:#e27fbc;}</style><clipPath id="clip-path"><path class="cls-1" d="M100,67.72A31.78,31.78,0,0,1,68.22,100H0V31.77a31.77,31.77,0,1,1,63.54,0v4.68h4C85,36.45,99.72,50.25,100,67.72Z"/></clipPath></defs><g class="cls-2"><rect class="cls-3" x="1.75" y="-54.73" width="14.41" height="149.02" transform="translate(16.61 -0.53) rotate(45)"/><rect class="cls-4" x="11.93" y="-44.54" width="14.41" height="149.02" transform="translate(26.8 -4.75) rotate(45)"/><rect class="cls-5" x="22.12" y="-34.35" width="14.41" height="149.02" transform="translate(36.99 -8.97) rotate(45)"/><rect class="cls-6" x="32.31" y="-24.16" width="14.41" height="149.02" transform="translate(47.17 -13.19) rotate(45)"/><rect class="cls-7" x="42.5" y="-13.98" width="14.41" height="149.02" transform="translate(57.36 -17.41) rotate(45)"/><rect class="cls-8" x="52.68" y="-3.79" width="14.41" height="149.02" transform="translate(67.55 -21.63) rotate(45)"/><rect class="cls-9" x="62.87" y="6.4" width="14.41" height="149.02" transform="translate(77.74 -25.85) rotate(45)"/><rect class="cls-10" x="73.06" y="16.59" width="14.41" height="149.02" transform="translate(87.92 -30.07) rotate(45)"/></g></svg>