<?xml version="1.0" encoding="UTF-8"?>
<svg id="Layer_1" data-name="Layer 1" xmlns="http://www.w3.org/2000/svg" viewBox="0 0 130 144.57">
  <defs>
    <style>
      .cls-1 {
        fill: #fff;
        stroke-width: 0px;
      }
    </style>
  </defs>
  <g id="Logo">
    <g id="Logo_Mark" data-name="Logo Mark">
      <path class="cls-1" d="m32.4,85.68V15.98l-23.1,13.4C3.6,32.68,0,38.78,0,45.38v53.7c0,6.6,3.5,12.7,9.3,16l51.1,29.5v-37.4l-23.4-13.5c-2.9-1.7-4.6-4.7-4.6-8Z"/>
      <path class="cls-1" d="m120.7,29.27L74.2,2.47c-5.7-3.3-12.8-3.3-18.5,0l-14.1,8.1v37.4l18.7-10.8c2.9-1.7,6.4-1.7,9.3,0l23.4,13.5c2.9,1.7,4.6,4.7,4.6,8v27c0,3.3-1.8,6.4-4.6,8l-23.4,13.5v37.4l51.1-29.5c5.7-3.3,9.3-9.4,9.3-16v-53.7c0-6.7-3.5-12.8-9.3-16.1Z"/>
    </g>
  </g>
</svg>