<?xml version="1.0" encoding="utf-8"?>
<!-- Generator: Adobe Illustrator 27.0.1, SVG Export Plug-In . SVG Version: 6.00 Build 0)  -->
<svg version="1.1" id="Layer_1" xmlns="http://www.w3.org/2000/svg" xmlns:xlink="http://www.w3.org/1999/xlink" x="0px" y="0px"
	 viewBox="0 0 596 640" style="enable-background:new 0 0 596 640;" xml:space="preserve">
<style type="text/css">
	.st0{fill:#FFFFFF;}
	.st1{fill:#345672;}
</style>
<path class="st0" d="M545.6,627.3H50.4c-22,0-39.8-17.8-39.8-39.8v-535c0-22,17.8-39.8,39.8-39.8h495.1c22,0,39.8,17.8,39.8,39.8
	v535C585.4,609.5,567.5,627.3,545.6,627.3z"/>
<path class="st1" d="M526.5,136.3c-17.9-3-26.2,11.5-32.9,25.3c-15.7,32.2-30.3,65.1-45.3,97.6c-3.9,8.5-10,32.2-19.4,35.1
	c5.3-42.2,4.8-85.5,7.7-127.9c2.1-30.1,6-61.7,4.6-91.9c-1.2-25.5-34.6-37.2-51.9-18.5c-10.4,11.2-10.5,36.1-12.6,50.7
	c-5.3,37.1-12.7,74-19.2,110.8c-2.2,12.4-4.9,25.3-6.2,37.9c-0.3,2.6-0.8,11.4-5.2,10.6c-4.6-0.8-3.5-10.2-3.9-13.5
	c-1.5-14.3-2.4-29.2-2.4-43.6c0-32.4-3.4-65.2-5.6-97.6c-1.4-20.7-1-41.9-4.3-62.5c-3.4-21.6-22-34.1-43.2-24.8
	c-19,8.3-15.2,28.8-15.2,45.7c0,44.1-4.8,89.7-1.8,133.6c1,14.4-1.3,29.1,0.1,43.6c0.4,4.1,2,12.8-3.2,15c-4.3,1.8-8.3-5.4-9.9-8.4
	c-6.2-11.6-10.3-25.4-14.5-37.9c-9.6-28.1-19.1-56.3-29.2-84.3c-4.7-13.1-8.1-27.8-15.3-39.8c-9.4-15.7-32.6-19.5-47.4-8.9
	c-22.5,16.2-2.8,55.8,3.7,76.1c16.9,53.1,33.1,106.8,45.2,161.1c3.8,17.1,8.7,49.8-6.5,63c-15.2,13.2-38.1-8.8-49.1-18.6
	c-7-6.2-13.3-13-19.9-19.7c-23.4-24-46.5-67-87.2-54c-5.3,1.7-10,4.1-14.2,7.9c-17.9,16.4,2.8,41.1,14.1,54.7
	c20.3,24.3,43.8,46.6,58.8,74.8c12.3,23.1,16.4,49.7,28.9,73c9.1,16.9,22.6,36.9,44,36.9c17.4,0,30-13.6,39.7-26.5
	c22.3-29.9,36.3-70.5,46.7-106.1c3.6-12.3,7.4-24.6,11-36.9c1.5-5.1,2.2-11.6,7.8-13.3c-0.2,10.6-1.7,21.7-3,32.2
	c-0.7,5.7-1.6,11.4-1.7,17.1c-0.1,6.1-2.6,14-0.2,19.9c2.7,6.7,11.5,5.9,15.4,0.9c5.2-6.8,7.9-16.7,11.4-24.5
	c6.7-14.9,13.6-29.6,20.2-44.5c2-4.6,9.5-27.2,16.5-23.6c5.5,2.8-2.3,17.5-3.5,21.7c-5.7,19.8-12.9,39.2-19.4,58.7
	c-2.4,7.1-3.6,17.9,7.1,18c9,0,13.6-10.5,17.9-17c11.3-17.2,23.7-33.8,36-50.2c2.8-3.7,14.2-22.5,19.8-19.7
	c5.8,2.9-7.5,19.3-9.6,22.6c-11.5,18.1-23.7,35.8-35,54c-4,6.4-8.7,15.9,0.3,20.7c8.8,4.6,19.2-5.9,25.5-10.7
	c13.4-10.4,26.3-21.5,39.8-31.8c6.1-4.7,11.8-10.6,19.9-10.3c-1.4,9.4-13.7,17.1-19.8,23.7c-17.9,19.3-39.1,37-55.1,57.8
	c-8.2,10.6-18.7,30.9,1.1,36.2c22,5.9,41.1-12.8,62.5-5.9v0.9c-17.5,8.1-36,16.4-52.1,27c-23.6,15.5-45.3,30.9-71.1,43
	c-8,3.8-16.9,9.1-25.6,10.9c-9.7,2-25.5-5.4-35.1-8c-24.1-6.6-59.6-15.1-83.4-3.9c-21.5,10.2-15.1,44.5,8.5,46.5v0.1
	c2.2,0.3,3.9,0.6,6.3,0.7c0.4,0,0.8,0.1,1.2,0.2c2.9,0.1,5.7,0.3,8.6,0.5c2.6,0.1,5.2,0.2,7.7,0.1c3.7-0.2,7.5-1.5,11.2-1.5v-0.1
	c17.2-0.7,35-7,51.2-12.6c6.6-2.3,15.8-7.7,22.7-7.8c4.9,0,10.5,3.1,15.2,4.4c11.3,3.2,22.7,5.8,34.1,8.2
	c49.8,10.5,109.1,9.1,139.2-38.6c25.7-40.8,30.7-96.2,35.3-143.1c6.2-63.2,16.1-126.8,31.3-188.5c4.2-16.9,9.4-33.7,15-50.2
	c2.8-8.4,7.6-17.6,8.3-26.5C549.1,148.4,538.9,138.3,526.5,136.3z M226.2,598.2c-18.7,5.4-52.2,16.7-70.1,4.6
	c-8.1-5.5-7-17.3,0.9-22.3c6.5-4.1,18.1-4.5,25.6-3.7c8.2,1,16.5,1.4,24.6,2.9c13.1,2.4,26.6,7.1,39.8,8.2
	C245.8,594.8,232.2,596.4,226.2,598.2z M527,190c-12.5,36.1-22.1,74.9-27.7,112.7c-3.7,25-8.2,49.8-11.4,74.8l-5.7,46.4
	c-4.7,38.4-8.6,78-22,114.6c-7.9,21.5-20.7,42.7-41.7,53.4c-11.6,5.9-24.1,8.7-36.9,9.9c-13.8,1.3-28.9,0.6-42.6-1.7
	c-16.5-2.7-34.8-4.8-50.2-11.4c8-9.3,26.1-13.8,36.9-19.8c23.3-12.9,43.7-30,67.3-42.3c11.3-5.9,32.2-11.1,39.2-22.2
	c5.6-8.9-8.8-16.2-15.5-17.6c-16-3.3-30,5.6-45.5,8.2c-4.5,0.8-14.8,1.5-13.8-5.8c1.4-10.6,15.2-21.3,22.3-28.4
	c12.5-12.5,24.5-25.4,36.9-37.9c7.7-7.7,17.8-16.3,23.4-25.6c7.4-12.3-4.2-22.9-16.8-20.7c-11.7,2.1-24.1,15.7-33,23.1
	c-10.3,8.5-20.8,18.4-32.4,25.1l-0.9-0.9c13.4-25,35.1-46.7,46.1-73c5.1-12.2-9.1-24-20.5-18.3c-6.9,3.5-12.2,11.3-16.7,17.3
	c-8.5,11.3-17.4,22.4-25.3,34.1c-4.1,6-8.4,15.4-14.8,18.9c0.4-15.9,10.2-35.1,15.2-50.2c2.1-6.2,6.4-14.2,5.3-20.8
	c-2.5-14.4-20.6-15.3-28.7-5.7c-4.7,5.7-7,13.3-10.2,19.9c-8.6,17.8-15.1,37.1-25.2,54c-5.5-13,4.3-32.5,2.7-46.4
	c-0.8-7.3-9-12.8-16-10.6c-6.7,2.1-9.7,8.2-11.8,14.4c-4.3,12.4-7.6,25.3-11.3,37.9c-7.1,24.4-16.7,47.7-26.7,71.1
	c-7.9,18.6-17.3,39.6-33.6,52.4c-15.6,12.2-30.6,6.5-41.6-8.8c-17.6-24.5-22.2-52.7-34.2-79.6c-9.7-21.8-25.2-40.7-40.8-58.5
	C57.6,359.4,45.7,347,36,333c-3.8-5.6-9-11.8-8.7-18.9c0.2-6.6,5.8-9.8,11.3-12.2c13.4-5.7,28.9,0.6,39.8,9
	c10.6,8.2,18.2,19.5,26.8,29.7c14.8,17.5,31.4,35.8,50.9,48.1c16.3,10.2,35.1,15.9,48.9-1.7c12.4-15.8,8.5-39.5,7.1-57.8
	c-4.4-54.8-28.8-108.3-43.2-161.1c-4.9-17.8-10.8-35.4-16-53.1c-2.1-7.1-3.1-17,3.3-22.2c16.9-14,31.6,2.1,37.4,17.5
	c15.8,41.9,28.7,84.9,44.3,127c4.6,12.5,13.5,43.6,32.9,36.2c16.5-6.3,10.4-34.1,10.4-47.6c0-28.1,0.9-56.2,0.9-84.3
	c0-19.4-1.6-39.5,0.7-58.7c1.7-14.4-7.1-44.2,11.6-49.3c27-7.4,24.3,24.9,26.3,41.8c5.9,50.2,4.1,101.2,8.6,151.6
	c1.3,13.8-4.4,50.4,16.3,52.1c20.3,1.7,19.2-36.3,21.6-49.3c8.1-43.1,13.6-86.8,22.2-129.8c2.8-14.1,1.1-37.6,18.8-41.3
	c29.3-6.2,21.1,37.8,20,53.6c-3.3,48.7-2.6,98.3-8.3,146.8c-1.5,12.6-7.5,42.6,8.3,47.3c13.9,4.1,19.9-18.1,24-27.4
	c14.8-33.7,30.5-67.3,46.5-100.4c5.5-11.3,14.7-41.9,32.7-27.9C542.3,159.2,530.6,179.5,527,190z"/>
</svg>
