<?xml version="1.0" encoding="UTF-8"?>
<svg id="Layer_1" data-name="Layer 1" xmlns="http://www.w3.org/2000/svg" viewBox="0 0 316.8 316.8">
  <defs>
    <style>
      .cls-1 {
        fill: #010101;
      }

      .cls-2 {
        fill: #00a9d3;
      }

      .cls-3 {
        fill: #fff;
      }
    </style>
  </defs>
  <rect class="cls-3" width="316.8" height="316.8" rx="31.22" ry="31.22"/>
  <g>
    <path class="cls-1" d="M156.23,8.66C94.03,15.26,42.23,53.56,18.63,110.66-.07,155.96-.07,208.06,18.73,244.06c21.7,41.7,66,64.6,125.1,64.6,41.8,0,78.6-13.2,109.5-39.4,43.9-37.1,67.2-104.7,56.1-162.6-10.1-52.9-48.4-88-105.2-96.4-13.2-2-36.7-2.7-48-1.6Zm32.7,61.5c3.9,.8,11.3,3.6,16.5,6.1,23.4,11.6,36,34.1,36,64.3,0,54-32,97.8-77.1,105.7-11,1.9-30.1,1.4-38.9-1-11.4-3.2-21.9-9.4-30.6-18-13.9-13.9-19.5-29-19.6-52.1,0-38.9,18-74.2,47.7-93.4,8.4-5.4,18.2-9.7,26.7-11.5,8.6-1.9,30.5-1.9,39.3-.1Z"/>
    <path class="cls-2" d="M132.73,95.61l-9.27,62-8.73,63,35-18.58,74-40.42v-2l-62-44.42-29-19.58Z"/>
  </g>
</svg>