<?xml version="1.0" encoding="utf-8"?>
<!-- Generator: Adobe Illustrator 27.0.1, SVG Export Plug-In . SVG Version: 6.00 Build 0)  -->
<svg version="1.1" id="Layer_1" xmlns="http://www.w3.org/2000/svg" xmlns:xlink="http://www.w3.org/1999/xlink" x="0px" y="0px"
	 viewBox="0 0 451.4 373.6" style="enable-background:new 0 0 451.4 373.6;" xml:space="preserve">
<style type="text/css">
	.st0{fill:#FFFFFF;}
	.st1{fill:#F78F1F;}
	.st2{fill:#014781;}
	.st3{fill:#2C6595;}
	.st4{fill:#4B7BA3;}
	.st5{fill:#7299B8;}
	.st6{fill:#9BB6CC;}
</style>
<path class="st0" d="M425.1,373.6H26.3C11.8,373.6,0,361.8,0,347.3v-321C0,11.8,11.8,0,26.3,0h398.8c14.5,0,26.3,11.8,26.3,26.3v321
	C451.4,361.8,439.6,373.6,425.1,373.6z"/>
<path class="st1" d="M116.7,133.3h40c4.1,0,12,1.5,15.2-1.7c3.9-4,1.8-15.1,1.8-20.3c0-4.7,1.5-12.6-1.8-16.5
	c-5.1-6-24.9-2.5-32.2-2.5h-92c-8.4,0-33-4.5-33.9,7c-0.5,6.3-3.2,29,2.3,32.8c3,2,8.2,1.1,11.6,1.1h29c4.4,0,11.9-1.4,13.6,4.1
	c2.8,9.2,0.4,22.3,0.4,31.9v69c0,8.2-3.7,28.7,1.1,35.4c2.1,2.9,6.9,2.4,10,2.5c7.4,0.2,31.8,4,34.4-5c3.6-12.4,0.4-30.1,0.4-42.9
	V133.3z"/>
<path class="st2" d="M191.9,93.1c-3.8,1.8-3.2,6.6-3.2,10.2v29v64c0,21-0.2,41.7,13.7,59c18.8,23.4,56.1,27.1,83.3,19.8
	c7.3-2,18.1-11.7,25-11.2c6.8,0.5,15,8.6,22,10.7c22.4,6.7,48.3,5,69-6.1c43.1-23.2,30-88.5,30-129.2v-33c0-3.5,1.1-9.4-1.7-12.2
	c-2.5-2.5-7.1-1.8-10.3-1.8c-9.1,0-20-1.6-28.9,0.3c-9.1,2-5.1,28.4-5.1,35.7v59c0,9.6,1.6,20.7-1,30c-4,14.7-19.1,20.3-33,17.3
	c-10.9-2.4-17-11.6-17.9-22.3c-2.2-27.6-0.1-56.3-0.1-84c0-9.1,4.8-35.2-8-36c-8.6-0.5-17.4,0-26,0c-3.1,0-7.8-0.7-10.3,1.7
	c-4.3,4.3-1.7,18.6-1.7,24.3v70c0,17.1,1.8,43.8-21,46.8c-13.6,1.8-26.9-3.7-30.8-17.8c-2.8-10.3-1.2-22.4-1.2-33v-63
	c0-6.7,2.7-20.8-1.3-26.5c-2.1-3-6.5-2.5-9.7-2.5C215,92.3,199.8,89.4,191.9,93.1z"/>
<path class="st3" d="M383.7,219.3l1,1L383.7,219.3z"/>
<path class="st4" d="M382.7,221.3l1,1L382.7,221.3z"/>
<path class="st5" d="M381.7,222.3l1,1L381.7,222.3z"/>
<path class="st3" d="M381.7,223.3l1,1L381.7,223.3z"/>
<path class="st5" d="M380.7,224.3l1,1L380.7,224.3z"/>
<path class="st6" d="M379.7,225.3l1,1L379.7,225.3z"/>
<path class="st3" d="M380.7,225.3l1,1L380.7,225.3z"/>
<path class="st4" d="M378.7,227.3l1,1L378.7,227.3z"/>
<path class="st4" d="M377.7,228.3l1,1L377.7,228.3z"/>
</svg>
