<?xml version="1.0" encoding="utf-8"?>
<!-- Generator: Adobe Illustrator 27.0.1, SVG Export Plug-In . SVG Version: 6.00 Build 0)  -->
<svg version="1.1" id="Layer_1" xmlns="http://www.w3.org/2000/svg" xmlns:xlink="http://www.w3.org/1999/xlink" x="0px" y="0px"
	 viewBox="0 0 3600 3600" style="enable-background:new 0 0 3600 3600;" xml:space="preserve">
<style type="text/css">
	.st0{fill:#FFFFFF;}
</style>
<g transform="translate(0.000000,3600.000000) scale(0.100000,-0.100000)">
	<path class="st0" d="M27512.2,29317.8c-537.5-74.8-948.7-257.8-1243.8-554.2c-314.5-314.5-457.6-669-457.6-1127.8
		c1.3-403.4,114.7-705,358.3-951.2c234.6-235.9,484.6-367.3,1104.6-578.7c382.8-130.2,585.2-223,654.8-299
		c43.8-47.7,47.7-59.3,47.7-128.9c0-153.4-101.8-220.4-348-230.7c-335.1-12.9-697.3,128.9-1002.8,395.7
		c-52.8,45.1-99.2,76-105.7,70.9c-6.4-6.4-234.6-255.2-509.1-553l-497.5-541.3l55.4-49c148.2-131.5,492.4-333.8,751.4-440.8
		c1211.6-502.7,2521.1-255.2,3076.7,580c192.1,288.7,270.7,558.1,272,928c0,404.7-105.7,665.1-382.8,940.9
		c-261.7,260.4-510.4,385.4-1272.2,644.5c-179.2,61.9-351.9,125-385.4,141.8c-69.6,34.8-127.6,98-131.5,139.2
		c-6.4,108.3,24.5,166.3,113.4,210.1c286.1,140.5,808.2-3.9,1089.1-300.3l67-70.9l131.5,134c72.2,72.2,306.8,310.6,520.7,529.8
		l389.3,395.7l-74.8,65.7c-377.7,332.5-921.6,571-1479.7,649.6C28092.2,29341,27679.8,29341,27512.2,29317.8z"/>
	<path class="st0" d="M5957.5,29199.2c-5.2-3.9-9-323.5-9-708.9v-699.9l616.1-2.6l614.8-3.9l3.9-1787.7l2.6-1789h837.8h837.8v1791.6
		v1791.6h612.2h612.2v708.9v708.9H8026.2C6893.2,29208.2,5961.3,29204.3,5957.5,29199.2z"/>
	<path class="st0" d="M10601.5,26707.7v-2500.5h1778.7h1778.7v696v696h-986h-986v238.5v238.5h870h870v650.9v650.9h-870h-870v212.7
		v212.7l925.5,2.6l924.2,3.9v696v696l-1716.9,3.9l-1718.1,2.6V26707.7z"/>
	<path class="st0" d="M14403.8,29203.1c0-3.9,380.2-542.6,844.2-1198.7l844.2-1192.3l-867.4-1267
		c-478.2-697.3-879-1282.5-891.9-1301.8l-21.9-36.1h991.2h992.5l427.9,721.8c235.9,397,433.1,724.4,438.2,727
		c5.2,3.9,211.4-320.9,458.9-721.8l448.5-727H19883h1813.5l38.7,107c20.6,58,76,223,123.7,367.3l87.6,260.4h795.3h795.3l128.9-363.5
		l130.2-364.8l910-3.9c501.4-1.3,911.3,1.3,911.3,6.4c-1.3,6.4-438.2,1130.4-971.9,2497.9l-969.3,2487.6l-890.7,3.9l-890.7,2.6
		l-21.9-54.1c-11.6-30.9-436.9-1108.5-943.5-2394.8c-506.5-1286.4-925.5-2345.9-929.3-2354.9c-10.3-18-1710.4,2401.3-1709.1,2430.9
		c0,11.6,368.6,542.6,817.2,1180.7c448.5,638,818.5,1167.8,821,1176.8c5.2,12.9-192.1,15.5-977,12.9l-983.5-3.9l-344.1-599.4
		c-189.5-330-359.6-625.1-378.9-656.1l-33.5-55.4l-386.7,641.9c-214,354.5-393.1,650.9-400.9,659.9c-10.3,11.6-229.4,15.5-1017,15.5
		C14854.9,29208.2,14403.8,29205.6,14403.8,29203.1z M22961,26848.2c107-331.3,194.6-607.1,194.6-616.1
		c0-10.3-109.6-14.2-399.6-14.2c-300.3,0-399.6,3.9-399.6,15.5c0,11.6,233.3,724.4,394.4,1207.7c2.6,10.3,7.7,15.5,10.3,12.9
		C22763.8,27451.4,22854,27178.1,22961,26848.2z"/>
	<path class="st0" d="M1579,20462.8v-2494.1h837.8h837.8v947.4v947.4h683.1h683.1v-947.4v-947.4h837.8h837.8v2494.1v2494.1h-837.8
		h-837.8v-844.2v-844.2h-689.6h-689.6v844.2v844.2h-831.4H1579V20462.8z"/>
	<path class="st0" d="M7160,21414.1c0-957.7,5.2-1603.4,14.2-1698.8c70.9-827.5,482.1-1399.8,1220.6-1701.4
		c165-67,380.2-123.7,595.5-157.2c113.4-16.8,226.9-23.2,483.3-21.9c359.6,0,510.4,14.2,760.5,74.8c70.9,18,128.9,30.9,128.9,29.6
		c1.3-1.3,16.8-65.7,34.8-143.1c33.5-137.9,33.5-141.8,10.3-193.3c-15.5-38.7-41.2-64.4-87.6-94.1c-43.8-27.1-69.6-52.8-74.8-74.8
		c-7.7-29.6,12.9-203.7,29.6-244.9c2.6-9-15.5-40-40-69.6c-58-68.3-77.3-130.2-67-208.8c7.7-54.1,3.9-69.6-30.9-125
		c-78.6-127.6-117.3-233.3-130.2-349.3c-7.7-73.5-32.2-174-74.8-299c-34.8-104.4-69.6-232-78.6-283.6c-9-52.8-29.6-130.2-45.1-172.7
		c-16.8-42.5-40-109.6-50.3-149.5c-12.9-46.4-38.7-92.8-72.2-131.5c-67-74.8-85.1-119.9-103.1-253.9
		c-25.8-193.3-12.9-180.5-360.9-324.8c-217.8-88.9-346.7-134-457.6-158.5c-255.2-58-644.5-199.8-781.1-284.9
		c-174-108.3-391.8-185.6-523.3-185.6c-76,0-91.5-5.2-172.7-54.1c-65.7-41.2-92.8-67-104.4-98c-12.9-34.8-20.6-41.2-42.5-34.8
		c-14.2,5.2-38.7,11.6-54.1,15.5c-18,3.9-156-43.8-373.8-128.9c-189.5-73.5-373.8-144.4-407.3-157.2
		c-33.5-11.6-126.3-64.4-206.2-117.3c-126.3-83.8-152.1-95.4-203.7-95.4c-50.3,0-140.5,20.6-140.5,32.2c0,1.3,9,28.4,20.6,59.3
		c10.3,30.9,25.8,94.1,32.2,140.5c6.4,45.1,36.1,153.4,65.7,238.5c55.4,159.8,65.7,242.3,45.1,349.3c-9,47.7-7.7,52.8,21.9,67
		c42.5,19.3,67,58,90.2,148.2c10.3,41.2,46.4,118.6,78.6,171.4c40,67,70.9,140.5,98,241c24.5,87.6,69.6,203.7,114.7,292.6
		c59.3,118.6,81.2,180.5,109.6,309.3c19.3,88.9,49,188.2,65.7,220.4c15.5,32.2,33.5,90.2,38.7,128.9c3.9,38.7,28.4,125,54.1,192
		c40,105.7,47.7,144.4,55.4,277.1c5.2,109.6,15.5,167.6,30.9,198.5c21.9,41.2,21.9,49,2.6,135.3c-11.6,50.3-23.2,144.4-27.1,207.5
		c-9,193.3-96.7,442.1-195.9,559.4c-28.4,33.5-92.8,77.3-183,125c-76,41.2-175.3,98-221.7,126.3l-83.8,52.8l-211.4-3.9l-212.7-3.9
		l-77.3-42.5c-43.8-24.5-113.4-54.1-156-65.7s-167.6-58-277.1-103.1c-109.6-43.8-234.6-90.2-277.1-103.1
		c-101.8-28.4-176.6-73.5-225.6-134c-32.2-40-51.6-51.6-98-58c-70.9-9-107-32.2-204.9-131.5c-52.8-52.8-94.1-82.5-131.5-92.8
		c-32.2-9-82.5-42.5-123.7-79.9c-50.3-45.1-81.2-64.4-107-64.4c-108.3,0-130.2-11.6-171.4-90.2c-54.1-100.5-152.1-186.9-299-262.9
		c-165-86.4-220.4-125-340.3-238.5c-56.7-54.1-158.5-135.3-225.6-180.5c-76-51.6-181.7-141.8-277.1-238.5
		c-149.5-148.2-158.5-156-253.9-186.9c-83.8-28.4-114.7-47.7-207.5-130.2c-59.3-52.8-174-148.2-255.2-212.7
		c-171.4-135.3-398.3-351.9-489.8-466.6c-81.2-101.8-149.5-230.7-159.8-305.5c-18-116,49-297.7,144.4-389.3
		c63.2-61.9,145.6-98,320.9-137.9l117.3-25.8l50.3,24.5c29.6,15.5,74.8,59.3,108.3,104.4c49,65.7,69.6,82.5,130.2,105.7
		c67,24.5,74.8,32.2,95.4,88.9c12.9,33.5,43.8,83.8,70.9,112.1c32.2,36.1,65.7,99.2,108.3,206.2c81.2,202.4,214,475.6,265.5,545.2
		c25.8,34.8,65.7,65.7,109.6,86.4c50.3,24.5,87.6,56.7,140.5,121.2c38.7,49,114.7,128.9,168.8,177.9
		c54.1,47.7,146.9,146.9,207.5,219.1l108.3,131.5l70.9,7.7c87.6,11.6,104.4,24.5,118.6,95.4c10.3,56.7,12.9,59.3,156,141.8
		c79.9,46.4,177.9,110.8,216.5,143.1c143.1,114.7,144.4,116,230.7,116h79.9l108.3,107c96.7,95.4,122.4,112.1,233.3,159.8
		c69.6,28.4,165,79.9,214,112.1c73.5,49,100.5,59.3,148.2,59.3c42.5,0,134,29.6,340.3,109.6c154.7,60.6,287.4,109.6,295.2,109.6
		c27.1,0,69.6-60.6,95.4-135.3l25.8-74.8l-30.9-78.6c-38.7-95.4-101.8-335.1-128.9-484.6c-12.9-70.9-38.7-146.9-70.9-212.7
		c-28.4-56.7-63.2-153.4-77.3-215.3c-14.2-60.6-72.2-219.1-128.9-350.6c-105.7-244.9-208.8-527.2-259.1-710.2
		c-16.8-63.2-52.8-143.1-91.5-208.8c-81.2-132.8-118.6-224.3-153.4-373.8c-14.2-64.4-50.3-162.4-78.6-217.8
		c-46.4-92.8-50.3-108.3-43.8-172.7c7.7-70.9,7.7-70.9-118.6-296.5c-121.2-216.5-126.3-228.1-122.4-296.5
		c3.9-88.9-6.4-121.2-110.8-337.7c-81.2-172.7-85.1-177.9-123.7-177.9c-25.8,0-58-14.2-88.9-40c-27.1-21.9-81.2-49-121.2-59.3
		c-116-29.6-189.5-74.8-260.4-156c-52.8-61.9-91.5-88.9-190.8-139.2c-210.1-105.7-384.1-228.1-533.6-377.7
		c-153.4-154.7-217.8-259.1-217.8-358.3c0-29.6,2.6-55.4,6.4-55.4c10.3,0,63.2,33.5,220.4,144.4c165,114.7,304.2,193.3,412.5,229.4
		c123.7,42.5,215.3,81.2,261.7,112.1c24.5,16.8,51.6,29.6,61.9,29.6c9,0,40,11.6,68.3,25.8c65.7,33.5,110.8,33.5,128.9-1.3
		c11.6-20.6,10.3-30.9-5.2-49c-18-19.3-16.8-25.8,5.2-59.3c34.8-51.6,32.2-123.7-5.2-197.2c-20.6-41.2-33.5-91.5-37.4-148.2
		c-2.6-47.7-11.6-92.8-18-101.8c-55.4-68.3-152.1-315.8-255.2-654.8c-50.3-165-96.7-287.4-152.1-395.7l-78.6-158.5v-139.2
		c-1.3-136.6-2.6-141.8-45.1-210.1c-87.6-139.2-95.4-156-100.5-219.1c-2.6-34.8-27.1-126.3-54.1-202.4
		c-64.4-172.7-91.5-279.7-91.5-353.2c0-40-20.6-107-65.7-217.8c-36.1-87.6-77.3-206.2-91.5-262.9c-14.2-56.7-40-146.9-56.7-199.8
		c-54.1-166.3-56.7-180.5-55.4-464c0-390.5,12.9-538.8,56.7-656.1c78.6-206.2,235.9-391.8,502.7-591.6
		c176.6-131.5,296.5-195.9,362.2-195.9c73.5,0,148.2,47.7,183,116c27.1,51.6,29.6,70.9,23.2,161.1c-6.4,99.2-32.2,189.5-59.3,206.2
		c-37.4,23.2,5.2,170.1,86.4,292.6c21.9,34.8,21.9,38.7-24.5,177.9c-25.8,77.3-41.2,141.8-36.1,141.8c20.6,0,92.8,68.3,104.4,99.2
		c9,24.5,0,52.8-46.4,145.6c-32.2,63.2-54.1,123.7-50.3,134c10.3,27.1,56.7,54.1,118.6,70.9c108.3,29.6,134,119.9,65.7,239.7
		c-45.1,79.9-42.5,112.1,14.2,141.8c60.6,30.9,99.2,176.6,165,605.8c28.4,189.5,32.2,247.5,23.2,317.1
		c-11.6,83.8-10.3,85.1,37.4,161.1c27.1,41.2,68.3,99.2,91.5,128.9c68.3,83.8,95.4,153.4,95.4,257.8c0,56.7,9,119.9,25.8,166.3
		l25.8,74.8l-27.1,59.3l-25.8,59.3l78.6,74.8c103.1,98,108.3,116,83.8,247.5c-21.9,121.2-15.5,176.6,23.2,193.3
		c51.6,23.2,82.5,92.8,130.2,292.6c25.8,108.3,68.3,243.6,92.8,300.3c25.8,56.7,56.7,134,68.3,170.1c11.6,37.4,33.5,81.2,49,96.7
		c20.6,23.2,28.4,52.8,33.5,132.8c7.7,118.6,32.2,189.5,99.2,290c25.8,38.7,68.3,126.3,95.4,193.3
		c123.7,310.6,121.2,305.5,161.1,299c50.3-6.4,217.8,61.9,330,137.9c51.6,33.5,136.6,77.3,190.8,98
		c137.9,50.3,203.7,122.4,259.1,282.3c7.7,23.2,14.2,20.6,56.7-25.8c43.8-49,54.1-52.8,125-56.7c119.9-6.4,136.6-5.2,224.3,25.8
		c63.2,23.2,100.5,46.4,157.2,101.8c40,40,78.6,83.8,86.4,98c11.6,23.2,18,23.2,95.4,7.7c69.6-12.9,100.5-12.9,197.2,3.9
		c64.4,11.6,137.9,20.6,163.7,20.6c27.1,0,131.5,25.8,232,56.7c101.8,30.9,210.1,64.4,242.3,72.2c32.2,7.7,110.8,42.5,174,77.3
		c64.4,33.5,161.1,73.5,216.5,88.9c91.5,24.5,103.1,25.8,137.9,7.7c55.4-28.4,68.3-25.8,170.1,42.5c87.6,58,95.4,60.6,183,60.6
		c78.6,0,104.4,6.4,181.7,43.8c78.6,38.7,104.4,45.1,190.8,45.1c114.7,2.6,110.8,11.6,60.6-126.3c-15.5-45.1-30.9-125-34.8-189.5
		c-6.4-104.4-10.3-114.7-47.7-150.8c-49-46.4-128.9-255.2-150.8-391.8c-11.6-70.9-32.2-127.6-85.1-229.4
		c-61.9-116-73.5-153.4-90.2-261.7c-15.5-108.3-25.8-137.9-73.5-215.3c-73.5-119.9-94.1-190.8-73.5-260.4
		c16.8-54.1,7.7-73.5-33.5-74.8c-7.7,0-24.5-29.6-37.4-67c-11.6-36.1-32.2-85.1-45.1-107c-21.9-37.4-170.1-636.7-212.7-863.6
		c-11.6-56.7-28.4-119.9-38.7-141.8c-9-20.6-32.2-118.6-50.3-215.3c-47.7-261.7-105.7-433.1-181.7-533.6
		c-20.6-28.4-36.1-77.3-50.3-167.6c-11.6-70.9-30.9-170.1-45.1-223c-18-70.9-20.6-103.1-10.3-128.9c6.4-18,16.8-126.3,23.2-239.7
		c6.4-117.3,20.6-239.7,32.2-283.6c11.6-42.5,34.8-141.8,51.6-220.4c38.7-185.6,86.4-279.7,201.1-394.4
		c49-49,104.4-110.8,122.4-137.9c33.5-51.6,40-55.4,262.9-143.1c128.9-51.6,139.2-54.1,238.5-46.4
		c193.3,12.9,355.7,72.2,443.4,162.4c59.3,60.6,73.5,103.1,86.4,247.5l9,98l-67,47.7c-60.6,43.8-65.7,51.6-65.7,99.2
		c0,28.4-9,70.9-20.6,95.4c-19.3,41.2-96.7,105.7-150.8,125c-20.6,7.7-21.9,24.5-14.2,208.8l9,199.8l-49,70.9
		c-54.1,79.9-52.8,101.8,11.6,128.9c78.6,33.5,95.4,148.2,38.7,262.9l-33.5,67l52.8,45.1c29.6,25.8,59.3,58,68.3,73.5
		c14.2,28.4,16.8,98,3.9,139.2c-5.2,15.5,1.3,24.5,20.6,30.9c42.5,14.2,76,101.8,76,203.7c0,72.2-5.2,95.4-32.2,135.3
		c-18,25.8-32.2,51.6-32.2,55.4c0,5.2,27.1,42.5,59.3,83.8c91.5,114.7,256.5,467.9,301.6,641.9c55.4,210.1,77.3,355.7,77.3,502.7
		c0,153.4,21.9,239.7,77.3,311.9c104.4,134,116,159.8,116,248.8c0,47.7,6.4,107,11.6,135.3c9,34.8,6.4,64.4-6.4,101.8
		c-15.5,43.8-15.5,55.4-2.6,59.3c9,2.6,37.4,27.1,63.2,54.1c50.3,51.6,82.5,131.5,96.7,234.6c6.4,47.7,16.8,68.3,45.1,88.9
		c45.1,33.5,40,19.3,114.7,319.7c88.9,351.9,242.3,890.7,264.2,922.9c11.6,18,37.4,29.6,77.3,36.1c42.5,5.2,74.8,20.6,107,47.7
		c59.3,52.8,117.3,76,186.9,76c32.2,0,82.5,9,112.1,19.3c29.6,10.3,78.6,19.3,108.3,19.3c28.4,0,81.2,9,114.7,19.3
		c49,14.2,82.5,15.5,161.1,5.2c91.5-11.6,107-10.3,194.6,20.6c118.6,40,131.5,40,241-1.3c110.8-41.2,179.2-37.4,293.9,19.3
		c194.6,95.4,330,327.4,330,565.8c0,167.6-55.4,234.6-195.9,234.6c-68.3,0-73.5,2.6-96.7,41.2l-23.2,41.2l-212.7,2.6
		c-174,2.6-228.1-1.3-296.5-20.6c-77.3-21.9-470.5-91.5-629-110.8l-69.6-9l9,88.9c3.9,49,10.3,100.5,12.9,114.7
		c2.6,14.2,1.3,33.5-5.2,42.5c-6.4,10.3,9,54.1,40,112.1c32.2,61.9,52.8,119.9,56.7,163.7c3.9,37.4,16.8,87.6,27.1,112.1
		c10.3,23.2,24.5,83.8,30.9,135.3c7.7,50.3,33.5,170.1,59.3,265.5c33.5,127.6,42.5,188.2,37.4,229.4c-6.4,49,0,70.9,55.4,181.7
		c76,149.5,109.6,256.5,105.7,336.4c-1.3,38.7,7.7,76,25.8,110.8l28.4,52.8l-33.5,98c-18,54.1-28.4,101.8-23.2,104.4
		c5.2,3.9,33.5,10.3,61.9,15.5l51.6,7.7l79.9,221.7c108.3,300.3,137.9,406,176.6,639.3c27.1,163.7,30.9,221.7,24.5,322.2l-9,122.4
		l70.9,135.3c119.9,226.9,197.2,485.9,226.9,763c9,82.5,14.2,672.8,14.2,1705.3v1578.9H11001h-837.8V21454
		c0-1331.5-2.6-1511.9-20.6-1594.4c-58-261.7-220.4-435.7-457.6-492.4c-247.5-58-509.1,9-656.1,168.8
		c-78.6,87.6-121.2,166.3-158.5,299c-28.4,99.2-28.4,105.7-32.2,1611.2l-3.9,1510.6h-836.5H7160V21414.1z"/>
	<path class="st0" d="M12702.4,20462.8v-2494.1h779.8h779.8v107c-1.3,58-18,692.2-37.4,1407.5c-20.6,716.6-34.8,1304.4-32.2,1307
		s11.6,1.3,20.6-2.6c9-2.6,221.7-639.3,473-1412.7l457.6-1406.2l592.9,2.6l592.9,3.9l464,1402.4
		c400.9,1211.6,466.6,1401.1,488.5,1401.1c24.5,0,24.5-10.3,16.8-324.8c-5.2-179.2-14.2-676.7-20.6-1105.9
		c-6.4-429.2-15.5-915.1-20.6-1078.8l-7.7-300.3h819.8h819.8v2494.1v2494.1H17755h-1133l-24.5-79.9
		c-12.9-45.1-188.2-648.3-390.5-1340.5c-291.3-1004.1-369.9-1260.6-386.7-1260.6s-110.8,268.1-430.5,1221.9
		c-225.6,671.5-427.9,1273.5-451.1,1336.6l-40,116l-1098.2,3.9l-1098.2,2.6V20462.8z"/>
	<path class="st0" d="M20237.5,20505.4c-531-1349.5-974.4-2472.2-983.5-2494.1l-16.8-42.5h888.1h888.1l122.4,364.8l121.2,363.5
		h796.6h796.6l128.9-363.5l128.9-364.8h913.9h912.6l-19.3,49c-10.3,25.8-447.3,1147.1-971.9,2490.2l-951.2,2442.5l-894.5,3.9
		l-894.5,2.6L20237.5,20505.4z M22271.4,20607.2c107-327.4,195.9-603.2,198.5-611c3.9-12.9-82.5-16.8-403.4-16.8
		c-322.2,0-407.3,3.9-403.4,16.8c3.9,7.7,95.4,283.6,204.9,612.2c109.6,327.4,201.1,595.5,204.9,595.5
		S22165.7,20935.9,22271.4,20607.2z"/>
	<path class="st0" d="M25295.3,20462.8v-2494.1h795.3h794l-7.7,197.2c-21.9,522-64.4,2175.7-56.7,2183.4c5.2,5.2,14.2,2.6,20.6-3.9
		s320.9-543.9,697.3-1193.5l685.7-1183.2h855.8h855.8v2494.1v2494.1h-792.7H28350v-99.2c0-55.4,14.2-601.9,32.2-1215.5
		c37.4-1318.6,36.1-1211.6,16.8-1211.6c-9,0-335.1,568.4-725.7,1263.2l-708.9,1261.9l-833.9,1.3h-835.2V20462.8z"/>
	<path class="st0" d="M30876.3,20462.8v-2494.1h1772.3h1772.3v696v696h-986h-986v232v232h870h870v650.9v650.9h-870h-870v219.1v219.1
		h928h928v696v696h-1714.3h-1714.3V20462.8z"/>
	<path class="st0" d="M31275.9,17467.3c-199.8-61.9-274.5-195.9-322.2-585.2c-34.8-272-52.8-342.9-122.4-458.9
		c-32.2-52.8-73.5-143.1-91.5-199.8c-63.2-189.5-148.2-335.1-385.4-653.5l-101.8-137.9l-24.5,30.9c-42.5,54.1-98,42.5-190.8-40
		c-43.8-38.7-83.8-70.9-88.9-70.9c-16.8,0-38.7-77.3-38.7-135.3c0-51.6-5.2-58-144.4-188.2c-79.9-74.8-162.4-146.9-183-159.8
		c-51.6-33.5-74.8-95.4-64.4-171.4c5.2-46.4,2.6-65.7-10.3-77.3c-15.5-12.9-21.9-9-33.5,16.8c-7.7,18-25.8,32.2-38.7,32.2
		c-30.9,0-256.5-243.6-336.4-364.8c-58-86.4-72.2-99.2-165-148.2c-87.6-45.1-107-61.9-132.8-113.4
		c-36.1-68.3-81.2-105.7-180.5-150.8c-87.6-37.4-165-121.2-197.2-212.7c-28.4-77.3-37.4-86.4-105.7-98
		c-28.4-5.2-61.9-11.6-73.5-15.5c-36.1-10.3-175.3-181.7-189.5-232c-14.2-50.3-55.4-87.6-143.1-128.9
		c-107-50.3-269.4-219.1-291.3-305.5c-6.4-30.9-14.2-34.8-61.9-33.5c-29.6,0-107-18-176.6-42.5c-116-40-166.3-67-301.6-165
		c-77.3-55.4-551.7-207.5-676.7-215.3c-114.7-7.7-224.3,18-266.8,63.2c-50.3,52.8-55.4,90.2-46.4,306.8l7.7,203.7l69.6,45.1
		c37.4,25.8,86.4,49,108.3,54.1c29.6,6.4,52.8,30.9,103.1,104.4c52.8,78.6,69.6,95.4,98,95.4c24.5,0,51.6,16.8,87.6,55.4
		c29.6,29.6,68.3,64.4,87.6,77.3c19.3,12.9,38.7,38.7,43.8,58c3.9,18,27.1,52.8,50.3,77.3c21.9,23.2,47.7,59.3,56.7,79.9
		s28.4,40,46.4,43.8c46.4,11.6,126.3,88.9,228.1,220.4c61.9,81.2,105.7,123.7,143.1,141.8c54.1,27.1,68.3,46.4,104.4,150.8
		c11.6,33.5,42.5,85.1,69.6,114.7c43.8,49,54.1,54.1,121.2,60.6c56.7,3.9,73.5,10.3,73.5,27.1c0,11.6,18,60.6,38.7,109.6
		c70.9,167.6,135.3,230.7,206.2,201.1c55.4-23.2,95.4-7.7,143.1,54.1c23.2,30.9,96.7,112.1,162.4,181.7
		c65.7,69.6,119.9,131.5,119.9,137.9c0,6.4,33.5,34.8,74.8,63.2c157.2,105.7,368.6,399.6,421.5,583.9
		c29.6,104.4,27.1,239.7-5.2,314.5c-34.8,78.6-153.4,189.5-257.8,241c-85.1,41.2-85.1,41.2-259.1,37.4
		c-119.9-2.6-201.1,2.6-255.2,15.5c-78.6,18-83.8,18-296.5-30.9c-224.3-51.6-319.7-82.5-412.5-136.6
		c-108.3-64.4-221.7-98-296.5-91.5c-59.3,6.4-72.2,3.9-90.2-19.3c-76-96.7-148.2-159.8-246.2-217.8
		c-319.7-192-449.8-299-498.8-408.6c-18-40-65.7-107-113.4-157.2c-94.1-99.2-123.7-170.1-123.7-288.7
		c0-100.5-29.6-150.8-112.1-193.3c-33.5-16.8-88.9-61.9-121.2-100.5c-55.4-64.4-64.4-88.9-171.4-422.8
		c-153.4-483.3-148.2-460.1-166.3-670.2l-15.5-185.6l-58-21.9c-32.2-12.9-107-54.1-165-92.8c-56.7-38.7-131.5-77.3-165-85.1
		c-33.5-9-78.6-27.1-98-42.5l-37.4-25.8l7.7,107c6.4,82.5,3.9,121.2-11.6,165c-28.4,76-25.8,101.8,11.6,150.8
		c18,23.2,32.2,54.1,32.2,68.3c0,14.2-28.4,165-63.2,333.8c-79.9,389.3-118.6,474.3-308.1,685.7c-119.9,135.3-125,139.2-195.9,153.4
		c-40,7.7-83.8,21.9-96.7,32.2c-23.2,16.8-21.9,21.9,24.5,132.8c52.8,126.3,52.8,144.4,0,250.1c-41.2,82.5-92.8,121.2-211.4,158.5
		c-235.9,74.8-915.1,190.8-996.3,170.1c-18-3.9-74.8-40-126.3-78.6c-108.3-82.5-378.9-228.1-478.2-257.8
		c-215.3-65.7-373.8-153.4-648.3-360.9c-216.5-163.7-362.2-295.2-433.1-391.8c-72.2-99.2-109.6-130.2-251.3-212.7
		c-140.5-79.9-217.8-150.8-259.1-235.9c-20.6-41.2-59.3-91.5-91.5-118.6c-181.7-149.5-269.4-251.3-344.1-402.1
		c-40-78.6-65.7-105.7-195.9-211.4c-25.8-20.6-58-56.7-70.9-79.9c-16.8-27.1-38.7-43.8-65.7-49c-110.8-24.5-175.3-100.5-255.2-309.3
		c-29.6-76-64.4-146.9-76-157.2c-92.8-74.8-243.6-241-341.6-376.4c-63.2-87.6-176.6-224.3-251.3-304.2
		c-74.8-78.6-163.7-176.6-197.2-217.8c-34.8-40-109.6-105.7-165-144.4c-55.4-40-146.9-121.2-202.4-181.7
		c-69.6-76-137.9-135.3-228.1-194.6c-70.9-46.4-171.4-118.6-224.3-159.8c-51.6-42.5-144.4-101.8-206.2-132.8
		c-61.9-30.9-134-78.6-162.4-108.3c-45.1-47.7-56.7-52.8-113.4-52.8c-43.8,0-78.6-10.3-118.6-32.2c-95.4-56.7-287.4-60.6-342.9-5.2
		c-33.5,33.5-30.9,76,12.9,176.6c20.6,47.7,45.1,126.3,54.1,176.6c7.7,49,30.9,125,50.3,167.6s38.7,95.4,43.8,116
		c5.2,21.9,24.5,76,42.5,121.2c30.9,76,32.2,88.9,19.3,166.3c-16.8,99.2-10.3,116,67,168.9c46.4,32.2,63.2,56.7,95.4,132.8
		c21.9,51.6,45.1,117.3,52.8,144.4c6.4,28.4,27.1,65.7,45.1,83.8c16.8,18,70.9,105.7,118.6,194.6
		c121.2,224.3,217.8,382.8,275.8,452.4c55.4,65.7,83.8,139.2,104.4,269.4c21.9,145.6,2.6,234.6-98,431.8
		c-92.8,181.7-244.9,440.8-336.4,573.6c-32.2,46.4-67,116-78.6,154.7c-32.2,112.1-103.1,242.3-166.3,302.9
		c-148.2,144.4-406,145.6-679.3,3.9c-116-60.6-273.3-203.7-337.7-306.8c-19.3-32.2-59.3-85.1-88.9-117.3
		c-29.6-32.2-74.8-94.1-100.5-136.6c-60.6-99.2-214-272-330-373.8c-74.8-67-91.5-90.2-99.2-131.5c-6.4-42.5-15.5-52.8-60.6-73.5
		c-34.8-15.5-65.7-43.8-90.2-81.2c-19.3-32.2-74.8-86.4-122.4-122.4c-47.7-36.1-113.4-101.8-145.6-144.4
		c-32.2-43.8-92.8-126.3-134-184.3c-86.4-118.6-233.3-244.9-256.5-221.7c-7.7,7.7-36.1,14.2-63.2,14.2c-40,0-61.9-11.6-135.3-77.3
		c-104.4-92.8-108.3-99.2-110.8-183l-2.6-64.4l-165-153.4c-91.5-85.1-170.1-153.4-176.6-153.4c-6.4,0-21.9-18-33.5-40
		c-20.6-40-19.3-68.3,2.6-215.3c7.7-50.3,5.2-56.7-15.5-51.6c-15.5,2.6-29.6,23.2-38.7,55.4c-10.3,40-20.6,52.8-45.1,55.4
		c-24.5,2.6-54.1-20.6-146.9-121.2c-64.4-68.3-148.2-171.4-186.9-229.4c-63.2-91.5-81.2-109.6-152.1-144.4
		c-96.7-49-126.3-73.5-157.2-134s-55.4-81.2-162.4-134c-105.7-51.6-174-122.4-206.2-212.7c-24.5-68.3-60.6-104.4-101.8-104.4
		c-63.2,0-110.8-30.9-186.9-119.9c-43.8-52.8-79.9-108.3-85.1-132.8c-7.7-45.1-42.5-74.8-140.5-121.2
		c-88.9-42.5-252.6-208.8-284.9-287.4c-23.2-56.7-27.1-60.6-60.6-52.8c-21.9,3.9-60.6-2.6-103.1-19.3
		c-36.1-14.2-100.5-34.8-140.5-46.4c-49-12.9-104.4-42.5-161.1-86.4c-47.7-36.1-108.3-76-132.8-88.9
		c-82.5-42.5-520.7-176.6-608.4-185.6c-122.4-11.6-220.4,10.3-279.7,64.4l-46.4,42.5l-3.9,225.6l-3.9,225.6l49,40
		c27.1,21.9,77.3,50.3,112.1,63.2c54.1,19.3,70.9,33.5,126.3,116c55.4,82.5,67,92.8,104.4,92.8c33.5,1.3,49,11.6,83.8,58
		c23.2,32.2,49,58,59.3,58c9,0,28.4,12.9,43.8,29.6c21.9,23.2,28.4,46.4,28.4,101.8c0,38.7,6.4,88.9,14.2,112.1
		c14.2,40,16.8,41.2,81.2,37.4c36.1-1.3,77.3,3.9,92.8,12.9c38.7,20.6,161.1,156,230.7,253.9c36.1,49,69.6,83.8,83.8,83.8
		c36.1,0,87.6,49,104.4,100.5c23.2,73.5,59.3,139.2,103.1,189.5c36.1,41.2,46.4,45.1,107,45.1h65.7l36.1,101.8
		c38.7,109.6,91.5,193.3,144.4,228.1c28.4,19.3,40,19.3,82.5,5.2c63.2-20.6,88.9-7.7,154.7,81.2c27.1,37.4,81.2,96.7,118.6,131.5
		c37.4,36.1,90.2,92.8,118.6,128.9c28.4,34.8,78.6,82.5,113.4,105.7c105.7,72.2,272,281,358.3,452.4
		c83.8,166.3,99.2,336.4,42.5,448.5c-36.1,70.9-172.7,194.6-260.4,235.9c-67,30.9-81.2,33.5-238.5,29.6
		c-116-1.3-194.6,3.9-257.8,16.8l-91.5,20.6l-203.7-46.4c-248.8-56.7-287.4-69.6-444.7-148.2c-152.1-76-193.3-87.6-288.7-79.9
		c-47.7,3.9-73.5,1.3-73.5-7.7c0-30.9-148.2-171.4-235.9-223c-158.5-94.1-342.9-219.1-409.9-279.7c-38.7-34.8-81.2-90.2-104.4-136.6
		c-21.9-43.8-70.9-112.1-109.6-152.1c-90.2-95.4-118.6-162.4-125-287.4c-5.2-116-25.8-152.1-114.7-199.8
		c-33.5-18-87.6-61.9-118.6-99.2c-54.1-61.9-65.7-88.9-166.3-399.6c-143.1-444.7-158.5-507.8-176.6-725.7
		c-16.8-206.2-25.8-234.6-116-341.6c-29.6-34.8-64.4-87.6-77.3-116c-33.5-76-42.5-203.7-24.5-333.8c19.3-140.5,49-183,139.2-195.9
		c116-16.8,143.1-40,228.1-198.5c179.2-333.8,206.2-366.1,284.9-341.6c23.2,7.7,33.5-2.6,68.3-63.2c49-87.6,130.2-171.4,189.5-195.9
		c23.2-10.3,69.6-18,101.8-18c33.5,0,104.4-15.5,158.5-34.8c61.9-21.9,126.3-34.8,170.1-34.8c86.4,0,217.8,41.2,345.4,109.6
		c52.8,27.1,103.1,50.3,112.1,50.3c10.3,0,37.4-16.8,60.6-36.1c23.2-20.6,54.1-41.2,67-46.4c30.9-10.3,252.6,61.9,317.1,103.1
		c24.5,15.5,170.1,101.8,324.8,189.5c170.1,98,313.2,190.8,369.9,238.5c49,43.8,104.4,85.1,119.9,94.1c16.8,7.7,51.6,34.8,77.3,58
		c55.4,49,117.3,82.5,214,114.7c91.5,29.6,165,99.2,176.6,167.6c25.8,165,54.1,204.9,158.5,220.4c95.4,14.2,118.6,27.1,198.5,114.7
		c41.2,45.1,104.4,103.1,140.5,128.9c70.9,52.8,96.7,100.5,109.6,203.7c9,68.3,45.1,125,78.6,125c10.3,0,38.7-14.2,64.4-32.2
		c25.8-16.8,51.6-28.4,58-24.5c18,11.6,154.7,220.4,286.1,439.5c68.3,116,137.9,216.5,152.1,224.3
		c43.8,23.2,149.5,127.6,180.5,176.6c14.2,24.5,46.4,52.8,70.9,61.9c34.8,15.5,45.1,29.6,58,77.3c14.2,50.3,25.8,64.4,87.6,103.1
		c59.3,36.1,81.2,61.9,136.6,156c52.8,91.5,74.8,118.6,116,136.6c69.6,33.5,105.7,69.6,143.1,141.8c29.6,59.3,38.7,65.7,175.3,130.2
		c153.4,72.2,171.4,91.5,194.6,198.5c7.7,29.6,25.8,52.8,65.7,79.9c29.6,20.6,78.6,70.9,105.7,112.1c28.4,41.2,87.6,104.4,134,139.2
		c45.1,36.1,109.6,91.5,144.4,125c33.5,33.5,107,95.4,161.1,137.9c130.2,99.2,189.5,162.4,215.3,230.7
		c25.8,63.2,50.3,79.9,118.6,79.9c159.8,0,235.9-206.2,130.2-351.9c-14.2-21.9-30.9-76-38.7-128.9c-7.7-54.1-29.6-125-52.8-170.1
		c-21.9-42.5-46.4-114.7-56.7-161.1c-10.3-46.4-46.4-144.4-79.9-219.1c-82.5-176.6-190.8-520.7-208.8-658.6
		c-6.4-59.3-28.4-143.1-46.4-185.6c-58-139.2-67-167.6-68.3-212.7c0-24.5-9-96.7-20.6-161.1c-15.5-86.4-19.3-162.4-14.2-296.5
		c10.3-266.8,24.5-326.1,107-443.4c37.4-54.1,117.3-170.1,176.6-259.1c146.9-217.8,199.8-253.9,541.3-372.5l192.1-65.7l104.4,25.8
		c58,14.2,137.9,41.2,176.6,59.3c67,30.9,74.8,32.2,125,14.2l54.1-18l79.9,64.4c43.8,34.8,126.3,83.8,183,108.3
		c87.6,37.4,126.3,64.4,241,168.9c188.2,175.3,246.2,219.1,313.2,242.3c32.2,10.3,65.7,28.4,73.5,37.4c24.5,28.4,18,91.5-11.6,128.9
		c-42.5,55.4-36.1,94.1,19.3,117.3c25.8,11.6,60.6,16.8,76,12.9c19.3-5.2,45.1,5.2,79.9,30.9c52.8,40,68.3,74.8,68.3,159.8
		c0,23.2,7.7,52.8,18,65.7c18,24.5,19.3,24.5,83.8,1.3c36.1-12.9,73.5-20.6,83.8-16.8c9,3.9,49,52.8,87.6,108.3
		s122.4,157.2,185.6,228.1c230.7,253.9,281,313.2,393.1,460.1c63.2,82.5,136.6,165,165,183c49,33.5,91.5,116,91.5,181.7
		c0,14.2,25.8,49,58,77.3c47.7,42.5,60.6,64.4,68.3,110.8c9,51.6,14.2,58,50.3,65.7c98,19.3,130.2,64.4,165,228.1l23.2,108.3l58-9
		c72.2-10.3,98,10.3,118.6,98c12.9,51.6,27.1,73.5,81.2,117.3c36.1,30.9,81.2,79.9,100.5,112.1l36.1,55.4l40-38.7
		c28.4-28.4,37.4-49,33.5-69.6c-3.9-16.8-21.9-162.4-40-324.8c-33.5-291.3-33.5-297.7-11.6-421.5c21.9-122.4,21.9-127.6-3.9-195.9
		c-24.5-68.3-24.5-70.9-2.6-152.1c12.9-45.1,23.2-108.3,24.5-140.5c1.3-145.6,65.7-288.7,217.8-485.9
		c101.8-132.8,181.7-206.2,283.6-264.2c40-21.9,99.2-59.3,131.5-83.8c33.5-23.2,94.1-58,135.3-76c42.5-18,114.7-61.9,161.1-95.4
		c98-73.5,136.6-90.2,207.5-90.2c32.2,0,91.5-18,154.7-46.4c112.1-50.3,134-50.3,214,0c33.5,20.6,74.8,32.2,137.9,37.4
		c141.8,10.3,256.5,52.8,328.7,119.9c41.2,38.7,87.6,65.7,141.8,85.1c45.1,14.2,116,51.6,159.8,82.5c42.5,30.9,123.7,82.5,179.2,116
		c55.4,32.2,141.8,99.2,192.1,148.2c76,73.5,99.2,88.9,134,88.9c52.8,0,77.3,24.5,161.1,163.7c85.1,139.2,148.2,189.5,202.4,159.8
		c21.9-11.6,42.5,9,165,163.7c77.3,96.7,159.8,194.6,183,217.8c21.9,23.2,41.2,47.7,41.2,54.1c0,6.4,23.2,41.2,51.6,77.3
		c40,50.3,61.9,67,99.2,73.5c61.9,10.3,88.9,34.8,127.6,112.1l30.9,60.6h78.6c67,0,86.4,5.2,126.3,37.4c25.8,19.3,98,72.2,161.1,116
		l114.7,78.6l28.4-25.8c14.2-14.2,56.7-30.9,94.1-38.7c119.9-21.9,132.8-34.8,244.9-238.5c58-103.1,123.7-216.5,146.9-252.6
		c43.8-67,56.7-70.9,126.3-43.8c14.2,5.2,28.4-9,49-51.6c36.1-73.5,131.5-177.9,189.5-204.9c23.2-11.6,67-20.6,96.7-20.6
		c30.9,0,109.6-16.8,176.6-38.7c65.7-20.6,137.9-38.7,159.8-38.7c73.5,0,197.2,38.7,328.7,103.1c70.9,36.1,132.8,64.4,136.6,64.4
		c3.9,0,32.2-20.6,63.2-45.1c30.9-24.5,68.3-45.1,83.8-45.1c40,0,244.9,72.2,286.1,100.5c19.3,14.2,165,99.2,324.8,190.8
		c192.1,109.6,320.9,192,382.8,246.2c51.6,45.1,98,81.2,104.4,81.2c5.2,0,45.1,29.6,86.4,64.4c54.1,45.1,112.1,78.6,195.9,110.8
		c159.8,61.9,186.9,94.1,215.2,265.5c14.2,81.2,52.8,112.1,159.8,132.8c92.8,18,96.7,20.6,177.9,108.3
		c46.4,50.3,112.1,110.8,145.6,136.6c65.7,47.7,104.4,116,104.4,185.6c0,59.3,24.5,112.1,59.3,128.9c27.1,11.6,38.7,9,82.5-19.3
		c27.1-18,56.7-29.6,64.4-24.5c19.3,11.6,156,224.3,290,448.5c90.2,152.1,121.2,194.6,176.6,235.9c37.4,27.1,95.4,85.1,128.9,126.3
		c33.5,42.5,78.6,83.8,99.2,92.8c28.4,11.6,42.5,29.6,51.6,65.7c7.7,27.1,14.2,54.1,14.2,59.3c0,16.8,308.1,367.3,348,395.7
		c21.9,15.5,56.7,67,82.5,121.2c36.1,77.3,69.6,119.9,172.7,223c108.3,107,132.8,137.9,157.2,203.7c15.5,42.5,49,112.1,74.8,154.7
		c70.9,118.6,253.9,372.5,324.8,447.3c78.6,85.1,87.6,81.2,170.1-74.8c58-108.3,61.9-119.9,61.9-215.3c0-76,6.4-113.4,27.1-153.4
		c19.3-36.1,24.5-64.4,19.3-94.1c-5.2-24.5,0-74.8,12.9-119.9c19.3-70.9,19.3-81.2,0-139.2c-29.6-88.9-25.8-121.2,24.5-184.3
		c77.3-96.7,74.8-137.9-7.7-190.8c-86.4-55.4-91.5-63.2-79.9-130.2c5.2-33.5,9-77.3,7.7-99.2c-1.3-20.6-3.9-81.2-5.2-134
		c-1.3-91.5-5.2-101.8-98-277.1c-79.9-150.8-105.7-216.5-153.4-388c-32.2-113.4-64.4-212.7-70.9-220.4s-28.4-18-49-21.9
		c-23.2-5.2-55.4-30.9-86.4-68.3c-67-81.2-186.9-167.6-264.2-190.8c-55.4-16.8-69.6-16.8-122.4,1.3c-47.7,15.5-68.3,16.8-108.3,5.2
		c-72.2-20.6-82.5-19.3-162.4,37.4c-100.5,69.6-150.8,69.6-264.2,0c-45.1-29.6-108.3-64.4-140.5-78.6
		c-206.2-94.1-248.8-118.6-299-168.8c-40-40-64.4-79.9-86.4-145.6c-40-114.7-59.3-153.4-113.4-224.3c-67-88.9-60.6-128.9,37.4-219.1
		c42.5-40,152.1-141.8,241-226.9c166.3-158.5,262.9-225.6,380.2-266.8c125-42.5,525.9-21.9,662.5,34.8
		c61.9,27.1,154.7,98,291.3,224.3c131.5,121.2,202.4,166.3,299,189.5c54.1,11.6,83.8,28.4,125,70.9c29.6,29.6,95.4,81.2,144.4,114.7
		c50.3,33.5,123.7,100.5,165,149.5c92.8,107,137.9,143.1,287.4,232c132.8,78.6,135.3,79.9,165,159.8c21.9,58,24.5,60.6,186.9,137.9
		c139.2,67,177.9,92.8,260.4,171.4c52.8,51.6,105.7,98,117.3,104.4c11.6,6.4,33.5,37.4,47.7,68.3c18,41.2,45.1,69.6,101.8,109.6
		c73.5,49,78.6,56.7,87.6,113.4c14.2,101.8,21.9,113.4,100.5,139.2c38.7,12.9,74.8,33.5,78.6,43.8c3.9,11.6,55.4,86.4,113.4,166.3
		c73.5,103.1,118.6,153.4,152.1,171.4c61.9,30.9,96.7,76,105.7,137.9c7.7,46.4,12.9,51.6,101.8,90.2c83.8,37.4,98,49,126.3,101.8
		c18,33.5,65.7,92.8,107,131.5c58,55.4,91.5,104.4,161.1,235.9l86.4,166.3l87.6,46.4c49,25.8,105.7,67,126.3,92.8
		c287.4,357,319.7,425.3,275.8,576.2s-157.2,327.4-211.4,327.4c-33.5,0-202.4-123.7-284.9-208.8c-40-40-95.4-113.4-122.4-162.4
		c-29.6-51.6-73.5-105.7-104.4-128.9c-28.4-23.2-137.9-121.2-242.3-219.1c-172.7-161.1-195.9-189.5-253.9-296.5
		c-47.7-87.6-79.9-130.2-126.3-166.3c-34.8-27.1-98-95.4-140.5-152.1s-104.4-122.4-136.6-144.4c-32.2-23.2-78.6-73.5-103.1-110.8
		c-24.5-37.4-78.6-100.5-119.9-139.2c-78.6-72.2-262.9-204.9-284.9-204.9c-6.4,0-21.9,19.3-33.5,43.8c-19.3,42.5-19.3,49,10.3,145.6
		c29.6,94.1,30.9,105.7,15.5,188.2c-15.5,78.6-14.2,104.4,6.4,221.7l24.5,134l-32.2,135.3c-36.1,152.1-38.7,190.8-18,272
		c14.2,55.4,12.9,58-76,228.1c-61.9,117.3-100.5,210.1-122.4,293.9c-86.4,324.8-411.2,944.8-607.1,1156.2
		c-95.4,103.1-163.7,144.4-287.4,176.6C31469.2,17480.2,31331.3,17484.1,31275.9,17467.3z M27873.1,15674.4
		c47.7-47.7,30.9-77.3-78.6-149.5c-90.2-59.3-158.5-143.1-210.1-259.1c-12.9-30.9-34.8-58-47.7-61.9c-12.9-3.9-43.8-34.8-68.3-68.3
		c-24.5-33.5-83.8-98-130.2-144.4c-47.7-46.4-100.5-105.7-118.6-134c-18-27.1-143.1-165-278.4-305.5
		c-207.5-216.5-270.7-274.5-404.7-367.3c-87.6-60.6-168.8-108.3-181.7-105.7c-37.4,6.4-32.2,88.9,15.5,272
		c91.5,349.3,165,497.5,290,594.2c36.1,27.1,141.8,130.2,234.6,228.1c143.1,150.8,184.3,185.6,259.1,223
		c49,24.5,118.6,70.9,156,103.1c58,49,81.2,59.3,157.2,72.2c60.6,10.3,104.4,27.1,134,50.3c77.3,58,122.4,77.3,185.6,78.6
		C27830.6,15700.2,27853.8,15693.8,27873.1,15674.4z M23740.8,14790.2c27.1-25.8,11.6-55.4-107-206.2
		c-50.3-63.2-103.1-145.6-117.3-183c-49-127.6-27.1-288.7,55.4-409.9c33.5-50.3,60.6-72.2,146.9-114.7
		c132.8-67,143.1-76,179.2-154.7c27.1-56.7,30.9-83.8,30.9-220.4c0-143.1-3.9-167.6-45.1-296.5c-24.5-77.3-45.1-165-45.1-195.9
		c0-29.6-11.6-77.3-25.8-105.7s-32.2-79.9-40-114.7c-9-42.5-34.8-94.1-76-149.5c-34.8-46.4-78.6-126.3-98-177.9
		c-45.1-119.9-88.9-183-185.6-266.8c-94.1-81.2-118.6-125-123.7-216.5c-1.3-38.7-6.4-73.5-11.6-77.3c-5.2-5.2-36.1-15.5-68.3-21.9
		c-60.6-12.9-60.6-12.9-94.1-103.1c-18-50.3-37.4-100.5-43.8-114.7c-5.2-12.9-47.7-40-92.8-60.6c-60.6-27.1-107-61.9-181.7-137.9
		c-154.7-158.5-248.8-197.2-498.8-203.7c-91.5-2.6-188.2-7.7-214-11.6c-52.8-9-61.9-1.3-95.4,90.2c-12.9,36.1-50.3,119.9-83.8,186.9
		c-68.3,136.6-79.9,194.6-79.9,407.3v134l-63.2,55.4c-47.7,41.2-63.2,63.2-63.2,90.2c0,37.4,36.1,112.1,52.8,112.1
		c5.2,0,27.1,23.2,47.7,52.8c33.5,45.1,38.7,63.2,40,141.8c0,50.3,23.2,198.5,52.8,341.6c49,238.5,54.1,257.8,108.3,339
		c30.9,46.4,86.4,134,122.4,194.6c37.4,60.6,85.1,136.6,107,171.4c27.1,41.2,42.5,82.5,46.4,128.9c7.7,86.4,54.1,157.2,114.7,177.9
		c61.9,20.6,123.7,78.6,177.9,166.3c41.2,68.3,50.3,74.8,101.8,82.5c61.9,10.3,68.3,18,123.7,166.3c15.5,40,37.4,78.6,50.3,85.1
		c15.5,9,52.8,5.2,114.7-11.6l92.8-23.2l112.1,68.3c167.6,101.8,313.2,212.7,349.3,268.1c19.3,28.4,63.2,65.7,110.8,92.8
		C23716.3,14817.3,23715,14817.3,23740.8,14790.2z M12610.9,12966.4c41.2-14.2,63.2-56.7,47.7-95.4c-3.9-10.3-38.7-38.7-76-63.2
		c-90.2-58-167.6-146.9-216.5-247.5c-21.9-47.7-49-83.8-63.2-88.9c-14.2-5.2-42.5-32.2-63.2-61.9c-20.6-29.6-76-91.5-123.7-137.9
		s-104.4-109.6-126.3-141.8c-21.9-32.2-150.8-172.7-284.9-313.2c-195.9-203.7-273.3-274.5-380.2-348
		c-181.7-125-192.1-130.2-215.3-110.8c-25.8,21.9-23.2,55.4,20.6,226.9c109.6,427.9,121.2,447.3,457.6,783.7
		c228.1,228.1,290,283.6,348,309.3c40,16.8,103.1,58,140.5,90.2c60.6,51.6,82.5,60.6,170.1,78.6c69.6,12.9,110.8,28.4,134,49
		c36.1,33.5,78.6,58,127.6,73.5C12555.5,12983.2,12564.5,12981.9,12610.9,12966.4z"/>
</g>
</svg>
